<svg xmlns="http://www.w3.org/2000/svg" version="1.1" xmlns:xlink="http://www.w3.org/1999/xlink" width="170" height="66"><svg width="170" height="66" viewBox="0 0 170 66" fill="none" xmlns="http://www.w3.org/2000/svg">
<path d="M47.4334 65.1156C47.0451 65.1156 46.7927 65.0379 46.6762 64.8826C46.5597 64.7661 46.5014 64.6302 46.5014 64.4749C47.2004 64.3584 47.88 63.8341 48.5402 62.9021C49.2003 62.009 49.5304 60.9605 49.5304 59.7567C49.5304 57.8538 48.9091 56.0093 47.6664 54.2229C46.4238 52.4755 44.6763 50.8639 42.424 49.3882C40.1716 47.9126 37.531 46.6505 34.502 45.602C31.5119 44.5147 28.2305 43.7186 24.6578 43.2138C23.3375 45.0778 21.8424 46.7864 20.1726 48.3397C18.5416 49.9319 16.7165 51.194 14.6972 52.126C12.7167 53.0968 10.5615 53.5822 8.23147 53.5822C5.78499 53.5822 3.92101 53.0191 2.63952 51.893C1.35803 50.7668 0.71728 49.4659 0.71728 47.9902C0.71728 46.6311 1.26094 45.2719 2.34827 43.9128C3.47443 42.5148 5.16366 41.3692 7.41598 40.4761C9.70713 39.5441 12.6002 39.0781 16.0952 39.0781C18.7746 39.0781 21.493 39.3111 24.2501 39.7771C25.2209 38.0684 26.0947 36.3597 26.8713 34.6511C27.648 32.9424 28.3276 31.3309 28.9101 29.8164C25.0656 29.6611 22.0366 29.0786 19.8231 28.0689C17.6096 27.0204 16.0369 25.7195 15.1049 24.1662C14.1729 22.6129 13.7069 21.0207 13.7069 19.3897C13.7069 17.3316 14.3283 15.3899 15.5709 13.5648C16.8136 11.7008 18.5028 10.1863 20.6386 9.0213C22.7744 7.8563 25.1627 7.27381 27.8033 7.27381C28.114 7.27381 28.3082 7.39031 28.3858 7.6233C28.4635 7.8563 28.5023 8.05047 28.5023 8.2058C27.0267 8.2058 25.5898 8.53588 24.1918 9.19604C22.8327 9.8562 21.6095 10.7494 20.5221 11.8755C19.4348 12.9628 18.5611 14.1861 17.9009 15.5452C17.2796 16.9044 16.9689 18.3024 16.9689 19.7392C16.9689 21.1372 17.3378 22.5158 18.0756 23.8749C18.8135 25.1953 20.0755 26.302 21.8619 27.1952C23.6482 28.0883 26.1529 28.5737 29.3761 28.6514C29.7256 27.7582 30.0168 26.9427 30.2498 26.2049C30.5216 25.4283 30.7546 24.7681 30.9488 24.2244C31.8808 21.4284 32.871 18.6519 33.9195 15.8947C35.0068 13.1376 36.2301 10.6329 37.5892 8.38055C38.9872 6.12823 40.6376 4.3225 42.5405 2.96334C44.4433 1.60419 46.715 0.924609 49.3557 0.924609C51.0643 0.924609 52.3846 1.41002 53.3166 2.38085C54.2874 3.35167 54.7729 4.69141 54.7729 6.40006C54.7729 8.06988 54.3845 9.91445 53.6079 11.9338C52.8312 13.9143 51.7439 15.8947 50.3459 17.8752C48.9479 19.8557 47.2975 21.7003 45.3947 23.4089C43.4919 25.1176 41.4143 26.535 39.162 27.6611C36.9097 28.7873 34.5409 29.4863 32.0555 29.7581C31.473 31.0008 30.7352 32.5735 29.8421 34.4763C28.9489 36.3403 27.881 38.2626 26.6383 40.2431C30.0168 41.0197 33.2011 42.0682 36.1913 43.3885C39.2202 44.7089 41.8803 46.2039 44.1714 47.8737C46.5014 49.5824 48.3266 51.3881 49.6469 53.291C50.9672 55.2326 51.6274 57.1548 51.6274 59.0577C51.6274 60.7663 51.2002 62.2031 50.3459 63.3681C49.4916 64.5331 48.5207 65.1156 47.4334 65.1156ZM49.3557 3.89534C47.6858 3.89534 46.1131 4.63316 44.6374 6.10882C43.1618 7.54564 41.7444 9.46787 40.3852 11.8755C39.0649 14.2443 37.764 16.885 36.4825 19.7975C35.201 22.7099 33.9195 25.603 32.638 28.4766C34.9292 28.166 37.065 27.467 39.0455 26.3797C41.026 25.2923 42.8317 23.972 44.4627 22.4187C46.0937 20.8265 47.4917 19.1373 48.6567 17.351C49.8216 15.5647 50.7148 13.8172 51.3361 12.1085C51.9575 10.361 52.2681 8.80771 52.2681 7.44856C52.2681 6.36123 52.0351 5.50691 51.5691 4.88558C51.1031 4.22542 50.3653 3.89534 49.3557 3.89534ZM2.17352 48.8057C2.17352 49.7766 2.69776 50.6115 3.74626 51.3105C4.79475 52.0483 6.28982 52.4172 8.23147 52.4172C11.1051 52.4172 13.7069 51.4852 16.0369 49.6212C18.3669 47.7961 20.4445 45.5632 22.2696 42.9225C20.2115 42.7284 18.1533 42.6313 16.0952 42.6313C12.9109 42.6313 10.2896 42.9614 8.23147 43.6215C6.17332 44.2429 4.63942 45.0389 3.62976 46.0098C2.65893 46.9418 2.17352 47.8737 2.17352 48.8057ZM57.2489 47C55.8121 47 54.8024 46.5923 54.2199 45.7768C53.6375 44.9224 53.3462 43.9516 53.3462 42.8643C53.3462 42.2818 53.4045 41.6993 53.521 41.1168C53.6763 40.4955 53.851 39.9324 54.0452 39.4276L57.9479 29.4669C58.0644 29.1562 58.1227 28.8844 58.1227 28.6514C58.1227 28.2631 58.0256 27.933 57.8314 27.6611C57.6373 27.3505 57.5013 27.1369 57.4237 27.0204L60.6274 26.9039C61.2099 26.8651 61.6176 26.9427 61.8506 27.1369C62.1225 27.2922 62.2584 27.4864 62.2584 27.7194C62.2584 27.9524 62.1225 28.3796 61.8506 29.0009C61.4623 29.9329 60.9381 31.0979 60.2779 32.4959C59.6177 33.8939 58.9576 35.3307 58.2974 36.8063C57.6761 38.282 57.1324 39.6606 56.6664 40.942C56.2393 42.2235 56.0257 43.2138 56.0257 43.9128C56.0257 44.4176 56.1422 44.8448 56.3752 45.1943C56.647 45.5438 57.0936 45.7185 57.7149 45.7185C58.5304 45.7185 59.3265 45.4078 60.1032 44.7865C60.9186 44.1264 61.6759 43.2914 62.3749 42.2818C63.0739 41.2721 63.7146 40.1848 64.2971 39.0198C64.9184 37.8548 65.4427 36.7675 65.8699 35.7578C66.3359 35.7578 66.5689 35.9326 66.5689 36.2821C66.1805 37.2529 65.6757 38.3597 65.0544 39.6023C64.433 40.845 63.7146 42.0294 62.8991 43.1555C62.1225 44.2429 61.2487 45.1554 60.2779 45.8933C59.3459 46.6311 58.3362 47 57.2489 47ZM62.4331 23.2924C61.9283 23.2924 61.4817 23.0983 61.0934 22.7099C60.7439 22.3216 60.5691 21.8556 60.5691 21.3119C60.5691 20.6518 60.841 20.0693 61.3846 19.5645C61.9283 19.0208 62.5302 18.749 63.1904 18.749C63.734 18.749 64.2 18.9237 64.5884 19.2732C64.9767 19.6227 65.1709 20.0693 65.1709 20.613C65.1709 21.3119 64.899 21.9333 64.3554 22.4769C63.8117 23.0206 63.171 23.2924 62.4331 23.2924ZM73.4878 47.233C71.8956 47.233 70.5947 46.7476 69.5851 45.7768C68.6143 44.7671 68.1288 43.7186 68.1288 42.6313C68.1288 41.7381 68.3618 40.9226 68.8278 40.1848C69.255 39.4081 69.8375 39.0198 70.5753 39.0198L70.6336 38.9033C71.4879 37.35 72.3034 35.7773 73.0801 34.1851C73.8955 32.5541 74.7887 30.826 75.7595 29.0009C76.575 27.4864 77.4488 26.2437 78.3808 25.2729C79.3516 24.3021 80.4777 23.8167 81.7592 23.8167C82.0699 23.8167 82.4971 23.8943 83.0407 24.0497C83.5844 24.1662 83.8562 24.438 83.8562 24.8652C83.8562 25.1758 83.6815 25.3312 83.332 25.3312C83.0601 25.3312 82.7495 25.2535 82.4 25.0982C82.0893 24.9428 81.8369 24.8652 81.6427 24.8652C80.9049 24.8652 80.2836 25.2923 79.7788 26.1467C79.2739 27.001 79.0215 27.9136 79.0215 28.8844C79.0215 29.9329 79.1963 30.8843 79.5458 31.7386C79.8952 32.5541 80.303 33.3502 80.769 34.1268C81.235 34.9035 81.6427 35.6996 81.9922 36.5151C82.3417 37.2917 82.5165 38.1461 82.5165 39.0781C82.5165 40.942 82.1476 42.4565 81.4097 43.6215C80.7107 44.7477 79.7788 45.602 78.6138 46.1845H78.672C80.7302 46.1845 82.4194 45.2331 83.7397 43.3303C85.0989 41.3886 86.4386 38.8645 87.7589 35.7578C88.2249 35.7578 88.4579 35.9326 88.4579 36.2821C87.7201 38.0296 86.9046 39.7382 86.0115 41.408C85.1183 43.0779 84.0698 44.4564 82.866 45.5438C81.6622 46.6311 80.1865 47.1747 78.439 47.1747C77.7012 47.1747 77.0216 47.0971 76.4003 46.9418C75.5071 47.1359 74.5363 47.233 73.4878 47.233ZM72.6141 41.0585C72.6141 41.9905 72.8276 42.8837 73.2548 43.738C73.682 44.5924 74.4586 45.2331 75.5848 45.6603C76.5944 45.0778 77.3711 44.1846 77.9148 42.9808C78.4973 41.7381 78.7885 40.4566 78.7885 39.1363C78.7885 38.049 78.672 36.9422 78.439 35.8161C78.206 34.6899 77.9536 33.5832 77.6818 32.4959C77.4488 31.4085 77.3323 30.4377 77.3323 29.5834C77.3323 29.3116 77.3323 29.0786 77.3323 28.8844C77.3711 28.6514 77.4099 28.4378 77.4488 28.2436C76.7498 29.2921 76.0314 30.5154 75.2935 31.9134C74.5945 33.3114 73.915 34.6511 73.2548 35.9326C72.5946 37.2141 71.9927 38.2626 71.4491 39.0781C72.2257 39.1946 72.6141 39.8547 72.6141 41.0585ZM70.6918 43.971C70.6918 44.5924 70.9054 45.136 71.3326 45.602C71.7597 46.068 72.4005 46.301 73.2548 46.301C73.6431 46.301 74.012 46.2622 74.3615 46.1845C73.546 45.6797 72.8859 45.0389 72.3811 44.2623C71.9151 43.4856 71.6821 42.5925 71.6821 41.5828C71.3326 41.9711 71.0802 42.3789 70.9248 42.806C70.7695 43.1944 70.6918 43.5827 70.6918 43.971ZM95.8324 47C94.3956 47 93.3859 46.5923 92.8034 45.7768C92.2209 44.9224 91.9297 43.9516 91.9297 42.8643C91.9297 42.2818 91.988 41.6993 92.1044 41.1168C92.2598 40.4955 92.4345 39.9324 92.6287 39.4276L96.5314 29.4669C96.6479 29.1562 96.7062 28.8844 96.7062 28.6514C96.7062 28.2631 96.6091 27.933 96.4149 27.6611C96.2208 27.3505 96.0848 27.1369 96.0072 27.0204L99.2109 26.9039C99.7934 26.8651 100.201 26.9427 100.434 27.1369C100.706 27.2922 100.842 27.4864 100.842 27.7194C100.842 27.9524 100.706 28.3796 100.434 29.0009C100.046 29.9329 99.5216 31.0979 98.8614 32.4959C98.2012 33.8939 97.5411 35.3307 96.8809 36.8063C96.2596 38.282 95.7159 39.6606 95.2499 40.942C94.8228 42.2235 94.6092 43.2138 94.6092 43.9128C94.6092 44.4176 94.7257 44.8448 94.9587 45.1943C95.2305 45.5438 95.6771 45.7185 96.2984 45.7185C97.1139 45.7185 97.91 45.4078 98.6866 44.7865C99.5021 44.1264 100.259 43.2914 100.958 42.2818C101.657 41.2721 102.298 40.1848 102.881 39.0198C103.502 37.8548 104.026 36.7675 104.453 35.7578C104.919 35.7578 105.152 35.9326 105.152 36.2821C104.764 37.2529 104.259 38.3597 103.638 39.6023C103.017 40.845 102.298 42.0294 101.483 43.1555C100.706 44.2429 99.8322 45.1554 98.8614 45.8933C97.9294 46.6311 96.9197 47 95.8324 47ZM101.017 23.2924C100.512 23.2924 100.065 23.0983 99.6769 22.7099C99.3274 22.3216 99.1526 21.8556 99.1526 21.3119C99.1526 20.6518 99.4245 20.0693 99.9681 19.5645C100.512 19.0208 101.114 18.749 101.774 18.749C102.318 18.749 102.784 18.9237 103.172 19.2732C103.56 19.6227 103.754 20.0693 103.754 20.613C103.754 21.3119 103.483 21.9333 102.939 22.4769C102.395 23.0206 101.754 23.2924 101.017 23.2924ZM115.042 47.233C113.605 47.233 112.304 46.767 111.139 45.835C110.013 44.903 109.45 43.4856 109.45 41.5828C109.45 39.9906 109.8 38.3014 110.499 36.5151C111.236 34.7288 112.188 33.0589 113.353 31.5056C114.557 29.9135 115.877 28.632 117.314 27.6611C118.789 26.6515 120.265 26.1467 121.741 26.1467C122.479 26.1467 123.197 26.3602 123.896 26.7874C124.595 27.2146 124.944 27.9524 124.944 29.0009C124.944 29.9717 124.576 31.0396 123.838 32.2046C123.1 33.3696 122.051 34.4569 120.692 35.4666C120.11 35.8938 119.372 36.3015 118.479 36.6898C117.586 37.0782 116.692 37.4082 115.799 37.6801C114.906 37.9131 114.168 38.0296 113.586 38.0296C113.392 38.4956 113.197 39.1169 113.003 39.8936C112.848 40.6702 112.77 41.4663 112.77 42.2818C112.77 43.2526 112.964 44.1264 113.353 44.903C113.741 45.6797 114.46 46.068 115.508 46.068C116.79 46.068 117.974 45.6991 119.061 44.9613C120.187 44.2234 121.178 43.2914 122.032 42.1653C122.925 41.0391 123.682 39.8936 124.304 38.7286C124.925 37.5636 125.41 36.5733 125.76 35.7578C126.226 35.7578 126.459 35.9326 126.459 36.2821C125.954 37.3694 125.372 38.5538 124.711 39.8353C124.09 41.1168 123.333 42.3206 122.44 43.4468C121.585 44.5341 120.537 45.4467 119.294 46.1845C118.09 46.8835 116.673 47.233 115.042 47.233ZM113.994 36.9811C114.537 36.9811 115.45 36.7869 116.731 36.3986C118.013 35.9714 119.178 35.3113 120.226 34.4181C121.236 33.5249 122.013 32.5541 122.556 31.5056C123.1 30.4183 123.372 29.5057 123.372 28.7679C123.372 27.9136 123.061 27.4864 122.44 27.4864C121.974 27.4864 121.333 27.7971 120.517 28.4184C119.702 29.0397 118.692 30.0882 117.489 31.5639C116.751 32.4959 116.052 33.5055 115.392 34.5928C114.731 35.6802 114.265 36.4762 113.994 36.9811ZM122.673 23.9914C122.44 23.7584 122.051 23.3507 121.508 22.7682C120.964 22.1469 120.362 21.4673 119.702 20.7295C119.081 19.9916 118.518 19.2926 118.013 18.6325C117.508 17.9335 117.158 17.4092 116.964 17.0597C117.197 16.1277 117.469 15.5647 117.78 15.3705C118.129 15.1375 118.44 15.0598 118.712 15.1375L123.546 23.8167C123.508 24.0885 123.216 24.1468 122.673 23.9914ZM132.217 35.5831C132.528 34.9229 132.936 33.8744 133.441 32.4376C133.946 30.962 134.47 29.331 135.013 27.5447C135.557 25.7583 135.965 24.0691 136.237 22.4769C136.353 21.8556 136.567 21.409 136.877 21.1372C137.188 20.8265 137.518 20.6712 137.868 20.6712C138.372 20.6712 138.838 20.9236 139.266 21.4284C139.693 21.8944 139.906 22.574 139.906 23.4672C139.906 24.5545 139.576 25.4865 138.916 26.2632C138.295 27.0398 137.518 27.7776 136.586 28.4766C136.974 28.5155 137.382 28.5543 137.809 28.5931C138.237 28.5931 138.703 28.5931 139.207 28.5931C141.033 28.5931 142.838 28.4766 144.625 28.2436C144.702 28.4766 144.741 28.6514 144.741 28.7679C144.741 29.2727 144.586 29.9135 144.275 30.6901C144.003 31.4668 143.712 32.1658 143.401 32.7871C143.246 33.1366 142.935 33.7774 142.469 34.7093C142.003 35.6025 141.499 36.6316 140.955 37.7966C140.411 38.9227 139.945 40.0489 139.557 41.175C139.207 42.2624 139.033 43.1944 139.033 43.971C139.033 44.9807 139.421 45.4855 140.198 45.4855C140.935 45.4855 141.965 44.6312 143.285 42.9225C144.605 41.175 145.926 38.7868 147.246 35.7578C147.712 35.7578 147.945 35.9326 147.945 36.2821C147.518 37.3306 146.974 38.4761 146.314 39.7188C145.693 40.9615 144.994 42.1459 144.217 43.272C143.44 44.3594 142.605 45.2719 141.712 46.0098C140.819 46.7088 139.887 47.0582 138.916 47.0582C138.178 47.0582 137.44 46.767 136.703 46.1845C135.965 45.5632 135.596 44.5729 135.596 43.2138C135.596 42.01 135.829 40.845 136.295 39.7188C136.761 38.5538 137.285 37.4665 137.868 36.4568C138.45 35.4472 138.974 34.554 139.44 33.7774C139.906 33.0007 140.139 32.3794 140.139 31.9134C140.139 31.2144 139.693 30.7095 138.8 30.3989C137.945 30.0882 136.819 29.9135 135.421 29.8746C134.722 31.661 134.198 32.9813 133.848 33.8356C133.499 34.6899 133.169 35.5054 132.858 36.2821C132.237 36.2821 132.023 36.0491 132.217 35.5831ZM157.835 47.233C156.398 47.233 155.097 46.767 153.932 45.835C152.806 44.903 152.243 43.4856 152.243 41.5828C152.243 39.9906 152.593 38.3014 153.291 36.5151C154.029 34.7288 154.981 33.0589 156.146 31.5056C157.35 29.9135 158.67 28.632 160.107 27.6611C161.582 26.6515 163.058 26.1467 164.534 26.1467C165.271 26.1467 165.99 26.3602 166.689 26.7874C167.388 27.2146 167.737 27.9524 167.737 29.0009C167.737 29.9717 167.368 31.0396 166.631 32.2046C165.893 33.3696 164.844 34.4569 163.485 35.4666C162.903 35.8938 162.165 36.3015 161.272 36.6898C160.379 37.0782 159.485 37.4082 158.592 37.6801C157.699 37.9131 156.961 38.0296 156.379 38.0296C156.185 38.4956 155.99 39.1169 155.796 39.8936C155.641 40.6702 155.563 41.4663 155.563 42.2818C155.563 43.2526 155.757 44.1264 156.146 44.903C156.534 45.6797 157.252 46.068 158.301 46.068C159.582 46.068 160.767 45.6991 161.854 44.9613C162.98 44.2234 163.971 43.2914 164.825 42.1653C165.718 41.0391 166.475 39.8936 167.097 38.7286C167.718 37.5636 168.203 36.5733 168.553 35.7578C169.019 35.7578 169.252 35.9326 169.252 36.2821C168.747 37.3694 168.165 38.5538 167.504 39.8353C166.883 41.1168 166.126 42.3206 165.233 43.4468C164.378 44.5341 163.33 45.4467 162.087 46.1845C160.883 46.8835 159.466 47.233 157.835 47.233ZM156.786 36.9811C157.33 36.9811 158.243 36.7869 159.524 36.3986C160.806 35.9714 161.971 35.3113 163.019 34.4181C164.029 33.5249 164.805 32.5541 165.349 31.5056C165.893 30.4183 166.165 29.5057 166.165 28.7679C166.165 27.9136 165.854 27.4864 165.233 27.4864C164.767 27.4864 164.126 27.7971 163.31 28.4184C162.495 29.0397 161.485 30.0882 160.281 31.5639C159.544 32.4959 158.845 33.5055 158.184 34.5928C157.524 35.6802 157.058 36.4762 156.786 36.9811Z" fill="black"></path>
</svg><style>@media (prefers-color-scheme: light) { :root { filter: none; } }
@media (prefers-color-scheme: dark) { :root { filter: invert(100%); } }
</style></svg>